<svg xmlns="http://www.w3.org/2000/svg" width="131" height="23" viewBox="0 0 131 23">
  <g fill="#5FCBF2" fill-rule="evenodd">
    <path d="M4.89963526,12.8823434 C4.94612054,12.8823434 4.99205974,12.8800415 5.03829473,12.8788905 L5.03820372,12.8823434 C5.03820372,15.9648529 7.50811264,18.4635939 10.5549351,18.4635939 C11.4453455,18.4635939 12.2856984,18.2490543 13.0302593,17.8699271 C14.0752339,20.8582878 16.8912227,23 20.203009,23 C24.4046596,23 27.8108499,19.5540164 27.8108499,15.3035095 C27.8108499,15.1953189 33,14.4308492 33,8.88113514 C32.1874746,-1.32376446 16.8654658,0.0633763203 14.4321672,0.0633763203 C1.33676474,0.585683394 0,5.18792461 0,7.92537535 C0,10.6630563 2.19366392,12.8823434 4.89963526,12.8823434" transform="matrix(1 0 0 -1 0 23)"/>
    <path d="M69.1448567,18.0617814 L69.1448567,10.44528 L72.2185116,10.44528 C75.9166305,10.44528 77.4172999,11.9402517 77.4172999,14.3304811 C77.4172999,16.234493 76.1970253,18.0617814 72.5139154,18.0617814 L69.1448567,18.0617814 Z M47.1435281,12.8012337 L55.1942478,22.5662176 L61.2335384,22.5662176 L52.2035971,12.019926 L61.5657824,0.319832223 L55.0318781,0.319832223 L47.1435281,10.4593536 L47.1435281,0.319832223 L42,0.319832223 L42,22.5662176 L47.1435281,22.5662176 L47.1435281,12.8012337 Z M116.577291,12.8012337 L124.627101,22.5662176 L130.666164,22.5662176 L121.63736,12.019926 L131,0.319832223 L124.465186,0.319832223 L116.577291,10.4593536 L116.577291,0.319832223 L111.433535,0.319832223 L111.433535,22.5662176 L116.577291,22.5662176 L116.577291,12.8012337 Z M96.2635615,4.7573057 C92.3318939,4.7573057 89.8499563,7.81784357 89.8499563,11.4998865 C89.8499563,15.1821564 92.3091531,18.2426943 96.2635615,18.2426943 C100.21797,18.2426943 102.676257,15.2221071 102.676257,11.4998865 C102.676257,7.77789292 100.194547,4.7573057 96.2635615,4.7573057 Z M84.5806713,11.4998865 C84.5806713,18.3782087 90.0650849,23 96.2635615,23 C102.462266,23 107.95623,18.5727412 107.95623,11.4998865 C107.95623,4.4279398 102.599393,0 96.2635615,0 C89.926593,0 84.5806713,4.62224525 84.5806713,11.4998865 Z M64.0013287,22.5662176 L72.9728259,22.5662176 C79.2533971,22.5662176 82.6961361,19.1962892 82.6961361,14.3418307 C82.6961361,9.48850728 79.1051267,6.03164076 72.7206298,6.03164076 L69.1448567,6.03164076 L69.1448567,0.319832223 L64.0013287,0.319832223 L64.0013287,22.5662176 Z" transform="matrix(1 0 0 -1 0 23)"/>
  </g>
</svg>